<svg xmlns="http://www.w3.org/2000/svg" version="1.1" xmlns:xlink="http://www.w3.org/1999/xlink" xmlns:svgjs="http://svgjs.com/svgjs" viewBox="0 0 640 400" data-background-color="#ffffff" preserveAspectRatio="xMidYMid meet" height="400" width="640"><rect width="640" height="400" x="0" y="0" opacity="1" fill="#ffffff" data-fill-palette-color="background" id="background"></rect><g id="tight-bounds" transform="matrix(1,0,0,1,122.24000000000001,152.58632301134375)"><svg viewBox="0 0 395.52 94.82735397731248" height="94.82735397731248" width="395.52"><g><svg viewBox="0 0 555.2312800075625 133.1187124002666" height="94.82735397731248" width="395.52"><g transform="matrix(1,0,0,1,159.71128000756258,38.3983322001333)"><svg viewBox="0 0 395.52 56.322048" height="56.322048" width="395.52"><g><svg viewBox="0 0 395.52 56.322048" height="56.322048" width="395.52"><g><svg viewBox="0 0 395.52 56.322048" height="56.322048" width="395.52"><g transform="matrix(1,0,0,1,0,0)"><svg width="395.52" viewBox="5 -39.55 284.24315782248004 40.05" height="56.322048" data-palette-color="#c10000"><g class="undefined-text-0" data-fill-palette-color="primary" id="text-0"><path d="M7.15 0L7.15 0Q6.25 0 5.63-0.63 5-1.25 5-2.15L5-2.15 5-36.9Q5-37.85 5.63-38.45 6.25-39.05 7.15-39.05L7.15-39.05Q8.1-39.05 8.72-38.45 9.35-37.85 9.35-36.9L9.35-36.9 9.35-2.15Q9.35-1.25 8.72-0.63 8.1 0 7.15 0ZM21.5 0L21.5 0Q20.6 0 19.97-0.63 19.35-1.25 19.35-2.15L19.35-2.15 19.35-36.9Q19.35-37.85 19.97-38.45 20.6-39.05 21.5-39.05L21.5-39.05 31.5-39.05Q35.25-39.05 38.1-37.43 40.95-35.8 42.57-32.93 44.2-30.05 44.2-26.25L44.2-26.25Q44.2-22.6 42.57-19.78 40.95-16.95 38.1-15.33 35.25-13.7 31.5-13.7L31.5-13.7 23.7-13.7 23.7-2.15Q23.7-1.25 23.07-0.63 22.45 0 21.5 0ZM23.7-34.95L23.7-17.8 31.5-17.8Q34-17.8 35.9-18.9 37.8-20 38.9-21.9 40-23.8 40-26.25L40-26.25Q40-28.85 38.9-30.78 37.8-32.7 35.9-33.83 34-34.95 31.5-34.95L31.5-34.95 23.7-34.95ZM61.55 0L61.55 0Q60.65 0 60.02-0.63 59.4-1.25 59.4-2.15L59.4-2.15 59.4-39.05 63.75-39.05 63.75-2.15Q63.75-1.25 63.12-0.63 62.5 0 61.55 0ZM75.25-35.1L47.9-35.1Q47-35.1 46.45-35.65 45.9-36.2 45.9-37.05L45.9-37.05Q45.9-37.95 46.45-38.5 47-39.05 47.9-39.05L47.9-39.05 75.25-39.05Q76.15-39.05 76.7-38.5 77.25-37.95 77.25-37.05L77.25-37.05Q77.25-36.2 76.7-35.65 76.15-35.1 75.25-35.1L75.25-35.1ZM96.09 0L96.09 0Q94.74 0 94.09-1.4L94.09-1.4 79.34-35.7Q78.74-37.2 79.24-38.13 79.74-39.05 81.04-39.05L81.04-39.05Q82.44-39.05 83.04-37.7L83.04-37.7 96.54-5.4 95.59-5.4 109.14-37.65Q109.49-38.45 109.97-38.75 110.44-39.05 111.24-39.05L111.24-39.05Q112.49-39.05 112.94-38.1 113.39-37.15 112.89-36L112.89-36 98.04-1.4Q97.74-0.65 97.24-0.33 96.74 0 96.09 0Z" fill="#c10000" data-fill-palette-color="primary"></path><path d="M130.303 0.5L130.303 0.5Q127.103 0.5 124.303-0.45 121.503-1.4 119.453-3.13 117.403-4.85 116.403-7.15L116.403-7.15Q115.953-8.05 116.383-8.8 116.803-9.55 117.803-9.8L117.803-9.8Q118.603-10 119.333-9.6 120.053-9.2 120.453-8.4L120.453-8.4Q121.153-7.05 122.583-5.93 124.003-4.8 125.983-4.17 127.953-3.55 130.303-3.55L130.303-3.55Q132.853-3.55 134.903-4.38 136.953-5.2 138.153-6.8 139.353-8.4 139.353-10.7L139.353-10.7Q139.353-13.6 137.153-15.78 134.953-17.95 130.153-18.5L130.153-18.5Q124.203-19.15 120.833-22.13 117.453-25.1 117.453-29.45L117.453-29.45Q117.453-32.55 119.153-34.83 120.853-37.1 123.803-38.33 126.753-39.55 130.503-39.55L130.503-39.55Q133.353-39.55 135.633-38.68 137.903-37.8 139.583-36.35 141.253-34.9 142.353-33.1L142.353-33.1Q142.953-32.2 142.783-31.38 142.603-30.55 141.853-30.1L141.853-30.1Q141.053-29.65 140.183-29.93 139.303-30.2 138.853-31L138.853-31Q138.053-32.25 136.933-33.27 135.803-34.3 134.233-34.88 132.653-35.45 130.453-35.5L130.453-35.5Q126.553-35.5 124.133-33.93 121.703-32.35 121.703-29.2L121.703-29.2Q121.703-27.6 122.553-26.18 123.403-24.75 125.483-23.75 127.553-22.75 131.203-22.25L131.203-22.25Q137.353-21.45 140.483-18.5 143.603-15.55 143.603-10.75L143.603-10.75Q143.603-8 142.553-5.9 141.503-3.8 139.683-2.38 137.853-0.95 135.433-0.23 133.003 0.5 130.303 0.5ZM163.103 0L163.103 0Q162.203 0 161.573-0.63 160.953-1.25 160.953-2.15L160.953-2.15 160.953-39.05 165.303-39.05 165.303-2.15Q165.303-1.25 164.673-0.63 164.053 0 163.103 0ZM176.803-35.1L149.453-35.1Q148.553-35.1 148.003-35.65 147.453-36.2 147.453-37.05L147.453-37.05Q147.453-37.95 148.003-38.5 148.553-39.05 149.453-39.05L149.453-39.05 176.803-39.05Q177.703-39.05 178.253-38.5 178.803-37.95 178.803-37.05L178.803-37.05Q178.803-36.2 178.253-35.65 177.703-35.1 176.803-35.1L176.803-35.1ZM202.603 0.5L202.603 0.5Q198.253 0.5 194.603-1 190.953-2.5 188.273-5.18 185.603-7.85 184.153-11.53 182.703-15.2 182.703-19.55L182.703-19.55Q182.703-23.9 184.153-27.55 185.603-31.2 188.273-33.88 190.953-36.55 194.603-38.05 198.253-39.55 202.603-39.55L202.603-39.55Q206.953-39.55 210.573-38.05 214.203-36.55 216.903-33.88 219.603-31.2 221.053-27.55 222.503-23.9 222.503-19.55L222.503-19.55Q222.503-15.2 221.053-11.53 219.603-7.85 216.903-5.18 214.203-2.5 210.573-1 206.953 0.5 202.603 0.5ZM202.603-3.55L202.603-3.55Q206.003-3.55 208.873-4.75 211.753-5.95 213.853-8.13 215.953-10.3 217.123-13.23 218.303-16.15 218.303-19.55L218.303-19.55Q218.303-22.95 217.123-25.85 215.953-28.75 213.853-30.93 211.753-33.1 208.873-34.3 206.003-35.5 202.603-35.5L202.603-35.5Q199.203-35.5 196.323-34.3 193.453-33.1 191.323-30.93 189.203-28.75 188.053-25.85 186.903-22.95 186.903-19.55L186.903-19.55Q186.903-16.15 188.053-13.23 189.203-10.3 191.323-8.13 193.453-5.95 196.323-4.75 199.203-3.55 202.603-3.55ZM232.743 0L232.743 0Q231.843 0 231.223-0.63 230.593-1.25 230.593-2.15L230.593-2.15 230.593-36.9Q230.593-37.85 231.223-38.45 231.843-39.05 232.743-39.05L232.743-39.05 241.993-39.05Q245.693-39.05 248.543-37.5 251.393-35.95 253.023-33.23 254.643-30.5 254.643-26.9L254.643-26.9Q254.643-23.5 253.023-20.85 251.393-18.2 248.543-16.7 245.693-15.2 241.993-15.2L241.993-15.2 234.943-15.2 234.943-2.15Q234.943-1.25 234.323-0.63 233.693 0 232.743 0ZM253.593 0L253.593 0Q252.943 0 252.493-0.28 252.043-0.55 251.743-1.1L251.743-1.1 242.343-16.1 246.593-17.25 255.293-3.35Q256.093-2.05 255.573-1.03 255.043 0 253.593 0ZM234.943-34.95L234.943-19.3 241.993-19.3Q244.443-19.3 246.343-20.28 248.243-21.25 249.343-22.98 250.443-24.7 250.443-26.9L250.443-26.9Q250.443-29.3 249.343-31.1 248.243-32.9 246.343-33.93 244.443-34.95 241.993-34.95L241.993-34.95 234.943-34.95ZM287.093 0L263.893 0Q262.993 0 262.373-0.63 261.743-1.25 261.743-2.15L261.743-2.15 261.743-36.9Q261.743-37.85 262.373-38.45 262.993-39.05 263.893-39.05L263.893-39.05 287.093-39.05Q287.993-39.05 288.623-38.48 289.243-37.9 289.243-36.95L289.243-36.95Q289.243-36.1 288.623-35.52 287.993-34.95 287.093-34.95L287.093-34.95 266.093-34.95 266.093-21.7 281.293-21.7Q282.243-21.7 282.843-21.1 283.443-20.5 283.443-19.65L283.443-19.65Q283.443-18.75 282.843-18.15 282.243-17.55 281.293-17.55L281.293-17.55 266.093-17.55 266.093-4.1 287.093-4.1Q287.993-4.1 288.623-3.53 289.243-2.95 289.243-2.1L289.243-2.1Q289.243-1.15 288.623-0.58 287.993 0 287.093 0L287.093 0Z" fill="#003c3b" data-fill-palette-color="secondary"></path></g></svg></g></svg></g></svg></g></svg></g><g><svg viewBox="0 0 133.1187124002666 133.1187124002666" height="133.1187124002666" width="133.1187124002666"><g><svg xmlns="http://www.w3.org/2000/svg" version="1.1" xmlns:xlink="http://www.w3.org/1999/xlink" xmlns:svgjs="http://svgjs.com/svgjs"></svg></g><g id="icon-0"><svg viewBox="0 0 133.1187124002666 133.1187124002666" height="133.1187124002666" width="133.1187124002666"><g><path d="M0 66.559c0-36.76 29.8-66.559 66.559-66.559 36.76 0 66.559 29.8 66.56 66.559 0 36.76-29.8 66.559-66.56 66.56-36.76 0-66.559-29.8-66.559-66.56zM66.559 128.04c33.955 0 61.48-27.526 61.481-61.481 0-33.955-27.526-61.48-61.481-61.48-33.955 0-61.48 27.526-61.48 61.48 0 33.955 27.526 61.48 61.48 61.481z" data-fill-palette-color="accent" fill="#003c3b" stroke="transparent"></path></g><g transform="matrix(1,0,0,1,31.728260602038297,31.728260602038297)"><svg viewBox="0 0 69.66219119619 69.66219119619" height="69.66219119619" width="69.66219119619"><g><svg xmlns="http://www.w3.org/2000/svg" xmlns:xlink="http://www.w3.org/1999/xlink" version="1.1" x="0" y="0" viewBox="7.581 7.688 84.624 84.624" enable-background="new 0 0 100 100" xml:space="preserve" height="69.66219119619" width="69.66219119619" class="icon-symbol-0" fill="#003c3b" data-fill-palette-color="accent" id="symbol-0"><path d="M84.524 38.454v-7.692H53.739V23.08h-7.69v7.682H15.263v7.692H7.581V76.92h7.682V46.155h7.71v-7.701h53.84v7.701h7.71V76.92h7.682V38.454H84.524zM15.263 76.92v7.71h7.71v7.682h7.682V84.63h38.477v7.682h7.682V84.63h7.71v-7.71H15.263zM69.132 7.688H61.44v7.682h7.692V7.688zM61.44 15.37h-7.701v7.71h7.701V15.37zM38.347 15.37v7.71h7.701v-7.71H38.347zM30.655 7.688v7.682h7.692V7.688H30.655z" fill="#003c3b" data-fill-palette-color="accent"></path></svg></g></svg></g></svg></g></svg></g></svg></g></svg><rect width="395.52" height="94.82735397731248" fill="transparent" stroke="transparent"></rect></g><defs></defs></svg>